<svg xmlns="http://www.w3.org/2000/svg" width="200" height="200">
  <defs>
    <pattern id="cinema" patternUnits="userSpaceOnUse" width="200" height="200">
    
      <rect width="200" height="200" fill="none"/>

      <!-- Хлопушка -->
      <g stroke="#555" stroke-width="1.4" fill="none" transform="translate(40,40) rotate(-15) scale(0.8)">
      <rect x="4" y="10" width="16" height="10" rx="2"/>
      <path d="M4 10V7.5A2 2 0 0 1 6 6h12a2 2 0 0 1 2 1.5V10H4Z"/>
      <path d="M6 6l2 4M10 6l2 4M14 6l2 4M18 6l1 4"/>
      </g>

      <!-- Попкорн -->
      <g stroke="#555" stroke-width="1.4" fill="none" transform="translate(130,50) rotate(10) scale(0.8)">
      <path d="M7 9c-.5-1.6.6-3 2.3-3 .4-1.2 1.8-2 3-1.3 1-.9 2.7-.5 3.2.8 1.5-.2 2.7 1.3 2.2 2.8.9.7.9 2 0 2.7H7Z"/>
      <path d="M7 9l1.2 10.5A2 2 0 0 0 10.2 22h3.6a2 2 0 0 0 2-2.5L17 9H7Z"/>
      <path d="M10 9l.7 11M14 9l-.7 11M12 9v11"/>
      </g>

      <!-- Киноплёнка -->
      <g stroke="#555" stroke-width="1.4" fill="none" transform="translate(60,140) rotate(-8) scale(0.9)">
      <circle cx="10" cy="12" r="6"/>
      <circle cx="10" cy="12" r="1"/>
      <circle cx="10" cy="8.5" r="1"/>
      <circle cx="10" cy="15.5" r="1"/>
      <circle cx="6.5" cy="12" r="1"/>
      <circle cx="13.5" cy="12" r="1"/>
      </g>

      <!-- 3D очки -->
      <g stroke="#555" stroke-width="1.4" fill="none" transform="translate(130,130) rotate(15) scale(0.8)">
      <rect x="2" y="8" width="8" height="5" rx="1"/>
      <rect x="12" y="8" width="8" height="5" rx="1"/>
      <path d="M2 8l2-3h6l2 3M12 8l2-3h6l2 3"/>
      <path d="M2 13h8M12 13h8"/>
      </g>

      <!-- Кинокамера -->
      <g stroke="#555" stroke-width="1.4" fill="none" transform="translate(40,120) rotate(-12) scale(0.8)">
      <rect x="6" y="12" width="10" height="6" rx="1"/>
      <circle cx="9" cy="9" r="3"/>
      <circle cx="15" cy="9" r="3"/>
      <path d="M16 13l5-3v8l-5-3Z"/>
      </g>

      <!-- Звёзды -->
      <g stroke="#555" stroke-width="1.2" fill="none" transform="translate(100,20) rotate(0) scale(0.8)">
      <path d="M2 6l2-2 2 2 2-2 2 2"/>
      </g>
      <g stroke="#555" stroke-width="1.2" fill="none" transform="translate(160,100) rotate(15) scale(1)">
      <path d="M2 6l2-2 2 2 2-2 2 2"/>
      </g>
      <g stroke="#555" stroke-width="1.2" fill="none" transform="translate(70,70) rotate(-15) scale(0.6)">
      <path d="M2 6l2-2 2 2 2-2 2 2"/>
      </g>
    </pattern>
  </defs>
  
  <rect width="200" height="200" fill="url(#cinema)"/>
</svg>