<svg xmlns="http://www.w3.org/2000/svg" width="250" height="250">
  <defs>
    <pattern id="party" patternUnits="userSpaceOnUse" width="250" height="250">
      <rect width="250" height="250" fill="none"/>

      <!-- Подарок -->
      <g stroke="#555" stroke-width="1.6" fill="none" transform="translate(50,50) rotate(-12) scale(1.1)">
      <rect x="2" y="6" width="20" height="16" rx="2"/>
      <path d="M12 6v16M2 12h20"/>
      <path d="M7 6c0-2 2-4 5-4s5 2 5 4"/>
      </g>

      <!-- Торт -->
      <g stroke="#555" stroke-width="1.6" fill="none" transform="translate(160,60) rotate(8) scale(1.1)">
      <rect x="2" y="10" width="20" height="10" rx="2"/>
      <path d="M2 13c2 1 4 1 6 0s4-1 6 0 4 1 6 0"/>
      <path d="M8 10V6M12 10V6M16 10V6"/>
      <path d="M8 6a1 1 0 1 0 0-2M12 6a1 1 0 1 0 0-2M16 6a1 1 0 1 0 0-2"/>
      </g>

      <!-- Пицца -->
      <g stroke="#555" stroke-width="1.6" fill="none" transform="translate(60,180) rotate(-8) scale(1.2)">
      <circle cx="12" cy="12" r="10"/>
      <path d="M12 2v20M2 12h20"/>
      <circle cx="8" cy="8" r="1.2"/><circle cx="16" cy="8" r="1.2"/><circle cx="8" cy="16" r="1.2"/><circle cx="16" cy="16" r="1.2"/>
      </g>

      <!-- Воздушные шары -->
      <g stroke="#555" stroke-width="1.6" fill="none" transform="translate(180,170) rotate(15) scale(1.1)">
      <ellipse cx="8" cy="8" rx="6" ry="8"/>
      <ellipse cx="18" cy="10" rx="5" ry="7"/>
      <path d="M8 16v6M18 17v5"/>
      </g>

      <!-- Ракета-фейерверк -->
      <g stroke="#555" stroke-width="1.6" fill="none" transform="translate(120,120) rotate(-20) scale(1.1)">
      <rect x="4" y="6" width="6" height="14"/>
      <path d="M7 2l6 4H1z"/>
      <path d="M7 20v4"/>
      </g>

      <!-- Свечки -->
      <g stroke="#555" stroke-width="1.6" fill="none" transform="translate(200,100) rotate(5) scale(1)">
      <rect x="2" y="6" width="4" height="10"/>
      <rect x="8" y="6" width="4" height="10"/>
      <path d="M4 6V3M10 6V3"/>
      </g>

      <!-- Маскарадная маска -->
      <g stroke="#555" stroke-width="1.6" fill="none" transform="translate(80,100) rotate(10) scale(1.2)">
      <path d="M2 10c4-6 8-6 12 0 4-6 8-6 12 0-4 4-8 4-12 0-4 4-8 4-12 0Z"/>
      <circle cx="8" cy="10" r="1.2"/>
      <circle cx="18" cy="10" r="1.2"/>
      </g>
    </pattern>
  </defs>
  <rect width="250" height="250" fill="url(#party)"/>
</svg>